<svg width="1260" height="140" viewBox="0 0 1260 140" fill="none" xmlns="http://www.w3.org/2000/svg">
<rect x="560" width="140" height="140" fill="#F0504A"/>
<rect x="280" width="140" height="140" fill="#FFBB5A"/>
<rect x="700" width="140" height="140" fill="#C66E5A"/>
<rect x="140" width="140" height="140" fill="#FFD181"/>
<rect width="140" height="140" fill="#FFF8D8"/>
<rect x="980" width="140" height="140" fill="#584944"/>
<rect x="1120" width="140" height="140" fill="#BFC57B"/>
<rect x="840" width="140" height="140" fill="#BD8D56"/>
<rect x="420" width="140" height="140" fill="#FF7C44"/>
<path d="M50.1602 122.598H48.6133L48.1445 125H47.3066L47.7754 122.598H46.375V121.795H47.9277L48.332 119.721H46.8203V118.906H48.4902L48.9707 116.469H49.8086L49.3281 118.906H50.875L51.3555 116.469H52.1992L51.7188 118.906H52.9141V119.721H51.5605L51.1562 121.795H52.4746V122.598H51.0039L50.5352 125H49.6914L50.1602 122.598ZM48.7656 121.795H50.3125L50.7168 119.721H49.1699L48.7656 121.795ZM58.7676 121.232H55.1875V125H54.0625V116.469H59.3477V117.395H55.1875V120.312H58.7676V121.232ZM65.4004 121.232H61.8203V125H60.6953V116.469H65.9805V117.395H61.8203V120.312H65.4004V121.232ZM72.0332 121.232H68.4531V125H67.3281V116.469H72.6133V117.395H68.4531V120.312H72.0332V121.232ZM78.8535 118.695C78.8535 119.121 78.7402 119.5 78.5137 119.832C78.291 120.164 77.9883 120.424 77.6055 120.611C78.0508 120.803 78.4023 121.082 78.6602 121.449C78.9219 121.816 79.0527 122.232 79.0527 122.697C79.0527 123.436 78.8027 124.023 78.3027 124.461C77.8066 124.898 77.1523 125.117 76.3398 125.117C75.5195 125.117 74.8613 124.898 74.3652 124.461C73.873 124.02 73.627 123.432 73.627 122.697C73.627 122.236 73.752 121.82 74.002 121.449C74.2559 121.078 74.6055 120.797 75.0508 120.605C74.6719 120.418 74.373 120.158 74.1543 119.826C73.9355 119.494 73.8262 119.117 73.8262 118.695C73.8262 117.977 74.0566 117.406 74.5176 116.984C74.9785 116.562 75.5859 116.352 76.3398 116.352C77.0898 116.352 77.6953 116.562 78.1562 116.984C78.6211 117.406 78.8535 117.977 78.8535 118.695ZM77.9688 122.674C77.9688 122.197 77.8164 121.809 77.5117 121.508C77.2109 121.207 76.8164 121.057 76.3281 121.057C75.8398 121.057 75.4473 121.205 75.1504 121.502C74.8574 121.799 74.7109 122.189 74.7109 122.674C74.7109 123.158 74.8535 123.539 75.1387 123.816C75.4277 124.094 75.8281 124.232 76.3398 124.232C76.8477 124.232 77.2461 124.094 77.5352 123.816C77.8242 123.535 77.9688 123.154 77.9688 122.674ZM76.3398 117.242C75.9141 117.242 75.5684 117.375 75.3027 117.641C75.041 117.902 74.9102 118.26 74.9102 118.713C74.9102 119.146 75.0391 119.498 75.2969 119.768C75.5586 120.033 75.9062 120.166 76.3398 120.166C76.7734 120.166 77.1191 120.033 77.377 119.768C77.6387 119.498 77.7695 119.146 77.7695 118.713C77.7695 118.279 77.6348 117.926 77.3652 117.652C77.0957 117.379 76.7539 117.242 76.3398 117.242ZM80.6992 125V116.469H83.1074C83.8496 116.469 84.5059 116.633 85.0762 116.961C85.6465 117.289 86.0859 117.756 86.3945 118.361C86.707 118.967 86.8652 119.662 86.8691 120.447V120.992C86.8691 121.797 86.7129 122.502 86.4004 123.107C86.0918 123.713 85.6484 124.178 85.0703 124.502C84.4961 124.826 83.8262 124.992 83.0605 125H80.6992ZM81.8242 117.395V124.08H83.0078C83.875 124.08 84.5488 123.811 85.0293 123.271C85.5137 122.732 85.7559 121.965 85.7559 120.969V120.471C85.7559 119.502 85.5273 118.75 85.0703 118.215C84.6172 117.676 83.9727 117.402 83.1367 117.395H81.8242ZM93.4668 118.695C93.4668 119.121 93.3535 119.5 93.127 119.832C92.9043 120.164 92.6016 120.424 92.2188 120.611C92.6641 120.803 93.0156 121.082 93.2734 121.449C93.5352 121.816 93.666 122.232 93.666 122.697C93.666 123.436 93.416 124.023 92.916 124.461C92.4199 124.898 91.7656 125.117 90.9531 125.117C90.1328 125.117 89.4746 124.898 88.9785 124.461C88.4863 124.02 88.2402 123.432 88.2402 122.697C88.2402 122.236 88.3652 121.82 88.6152 121.449C88.8691 121.078 89.2188 120.797 89.6641 120.605C89.2852 120.418 88.9863 120.158 88.7676 119.826C88.5488 119.494 88.4395 119.117 88.4395 118.695C88.4395 117.977 88.6699 117.406 89.1309 116.984C89.5918 116.562 90.1992 116.352 90.9531 116.352C91.7031 116.352 92.3086 116.562 92.7695 116.984C93.2344 117.406 93.4668 117.977 93.4668 118.695ZM92.582 122.674C92.582 122.197 92.4297 121.809 92.125 121.508C91.8242 121.207 91.4297 121.057 90.9414 121.057C90.4531 121.057 90.0605 121.205 89.7637 121.502C89.4707 121.799 89.3242 122.189 89.3242 122.674C89.3242 123.158 89.4668 123.539 89.752 123.816C90.041 124.094 90.4414 124.232 90.9531 124.232C91.4609 124.232 91.8594 124.094 92.1484 123.816C92.4375 123.535 92.582 123.154 92.582 122.674ZM90.9531 117.242C90.5273 117.242 90.1816 117.375 89.916 117.641C89.6543 117.902 89.5234 118.26 89.5234 118.713C89.5234 119.146 89.6523 119.498 89.9102 119.768C90.1719 120.033 90.5195 120.166 90.9531 120.166C91.3867 120.166 91.7324 120.033 91.9902 119.768C92.252 119.498 92.3828 119.146 92.3828 118.713C92.3828 118.279 92.248 117.926 91.9785 117.652C91.709 117.379 91.3672 117.242 90.9531 117.242Z" fill="black"/>
<path d="M189.107 122.598H187.561L187.092 125H186.254L186.723 122.598H185.322V121.795H186.875L187.279 119.721H185.768V118.906H187.438L187.918 116.469H188.756L188.275 118.906H189.822L190.303 116.469H191.146L190.666 118.906H191.861V119.721H190.508L190.104 121.795H191.422V122.598H189.951L189.482 125H188.639L189.107 122.598ZM187.713 121.795H189.26L189.664 119.721H188.117L187.713 121.795ZM197.715 121.232H194.135V125H193.01V116.469H198.295V117.395H194.135V120.312H197.715V121.232ZM204.348 121.232H200.768V125H199.643V116.469H204.928V117.395H200.768V120.312H204.348V121.232ZM206.275 125V116.469H208.684C209.426 116.469 210.082 116.633 210.652 116.961C211.223 117.289 211.662 117.756 211.971 118.361C212.283 118.967 212.441 119.662 212.445 120.447V120.992C212.445 121.797 212.289 122.502 211.977 123.107C211.668 123.713 211.225 124.178 210.646 124.502C210.072 124.826 209.402 124.992 208.637 125H206.275ZM207.4 117.395V124.08H208.584C209.451 124.08 210.125 123.811 210.605 123.271C211.09 122.732 211.332 121.965 211.332 120.969V120.471C211.332 119.502 211.104 118.75 210.646 118.215C210.193 117.676 209.549 117.402 208.713 117.395H207.4ZM217.432 125H216.342V117.775L214.156 118.578V117.594L217.262 116.428H217.432V125ZM225.781 118.695C225.781 119.121 225.668 119.5 225.441 119.832C225.219 120.164 224.916 120.424 224.533 120.611C224.979 120.803 225.33 121.082 225.588 121.449C225.85 121.816 225.98 122.232 225.98 122.697C225.98 123.436 225.73 124.023 225.23 124.461C224.734 124.898 224.08 125.117 223.268 125.117C222.447 125.117 221.789 124.898 221.293 124.461C220.801 124.02 220.555 123.432 220.555 122.697C220.555 122.236 220.68 121.82 220.93 121.449C221.184 121.078 221.533 120.797 221.979 120.605C221.6 120.418 221.301 120.158 221.082 119.826C220.863 119.494 220.754 119.117 220.754 118.695C220.754 117.977 220.984 117.406 221.445 116.984C221.906 116.562 222.514 116.352 223.268 116.352C224.018 116.352 224.623 116.562 225.084 116.984C225.549 117.406 225.781 117.977 225.781 118.695ZM224.896 122.674C224.896 122.197 224.744 121.809 224.439 121.508C224.139 121.207 223.744 121.057 223.256 121.057C222.768 121.057 222.375 121.205 222.078 121.502C221.785 121.799 221.639 122.189 221.639 122.674C221.639 123.158 221.781 123.539 222.066 123.816C222.355 124.094 222.756 124.232 223.268 124.232C223.775 124.232 224.174 124.094 224.463 123.816C224.752 123.535 224.896 123.154 224.896 122.674ZM223.268 117.242C222.842 117.242 222.496 117.375 222.23 117.641C221.969 117.902 221.838 118.26 221.838 118.713C221.838 119.146 221.967 119.498 222.225 119.768C222.486 120.033 222.834 120.166 223.268 120.166C223.701 120.166 224.047 120.033 224.305 119.768C224.566 119.498 224.697 119.146 224.697 118.713C224.697 118.279 224.562 117.926 224.293 117.652C224.023 117.379 223.682 117.242 223.268 117.242ZM230.908 125H229.818V117.775L227.633 118.578V117.594L230.738 116.428H230.908V125Z" fill="black"/>
<path d="M331.393 122.598H329.846L329.377 125H328.539L329.008 122.598H327.607V121.795H329.16L329.564 119.721H328.053V118.906H329.723L330.203 116.469H331.041L330.561 118.906H332.107L332.588 116.469H333.432L332.951 118.906H334.146V119.721H332.793L332.389 121.795H333.707V122.598H332.236L331.768 125H330.924L331.393 122.598ZM329.998 121.795H331.545L331.949 119.721H330.402L329.998 121.795ZM340 121.232H336.42V125H335.295V116.469H340.58V117.395H336.42V120.312H340V121.232ZM346.633 121.232H343.053V125H341.928V116.469H347.213V117.395H343.053V120.312H346.633V121.232ZM348.561 125V116.469H351.35C352.275 116.469 352.971 116.66 353.436 117.043C353.904 117.426 354.139 117.992 354.139 118.742C354.139 119.141 354.025 119.494 353.799 119.803C353.572 120.107 353.264 120.344 352.873 120.512C353.334 120.641 353.697 120.887 353.963 121.25C354.232 121.609 354.367 122.039 354.367 122.539C354.367 123.305 354.119 123.906 353.623 124.344C353.127 124.781 352.426 125 351.52 125H348.561ZM349.686 121.01V124.08H351.543C352.066 124.08 352.479 123.945 352.779 123.676C353.084 123.402 353.236 123.027 353.236 122.551C353.236 121.523 352.678 121.01 351.561 121.01H349.686ZM349.686 120.107H351.385C351.877 120.107 352.27 119.984 352.562 119.738C352.859 119.492 353.008 119.158 353.008 118.736C353.008 118.268 352.871 117.928 352.598 117.717C352.324 117.502 351.908 117.395 351.35 117.395H349.686V120.107ZM356.037 125V116.469H358.826C359.752 116.469 360.447 116.66 360.912 117.043C361.381 117.426 361.615 117.992 361.615 118.742C361.615 119.141 361.502 119.494 361.275 119.803C361.049 120.107 360.74 120.344 360.35 120.512C360.811 120.641 361.174 120.887 361.439 121.25C361.709 121.609 361.844 122.039 361.844 122.539C361.844 123.305 361.596 123.906 361.1 124.344C360.604 124.781 359.902 125 358.996 125H356.037ZM357.162 121.01V124.08H359.02C359.543 124.08 359.955 123.945 360.256 123.676C360.561 123.402 360.713 123.027 360.713 122.551C360.713 121.523 360.154 121.01 359.037 121.01H357.162ZM357.162 120.107H358.861C359.354 120.107 359.746 119.984 360.039 119.738C360.336 119.492 360.484 119.158 360.484 118.736C360.484 118.268 360.348 117.928 360.074 117.717C359.801 117.502 359.385 117.395 358.826 117.395H357.162V120.107ZM363.73 120.723L364.164 116.469H368.535V117.471H365.084L364.826 119.797C365.244 119.551 365.719 119.428 366.25 119.428C367.027 119.428 367.645 119.686 368.102 120.201C368.559 120.713 368.787 121.406 368.787 122.281C368.787 123.16 368.549 123.854 368.072 124.361C367.6 124.865 366.938 125.117 366.086 125.117C365.332 125.117 364.717 124.908 364.24 124.49C363.764 124.072 363.492 123.494 363.426 122.756H364.451C364.518 123.244 364.691 123.613 364.973 123.863C365.254 124.109 365.625 124.232 366.086 124.232C366.59 124.232 366.984 124.061 367.27 123.717C367.559 123.373 367.703 122.898 367.703 122.293C367.703 121.723 367.547 121.266 367.234 120.922C366.926 120.574 366.514 120.4 365.998 120.4C365.525 120.4 365.154 120.504 364.885 120.711L364.598 120.945L363.73 120.723ZM374.963 122.773H371.389L370.586 125H369.426L372.684 116.469H373.668L376.932 125H375.777L374.963 122.773ZM371.729 121.848H374.629L373.176 117.857L371.729 121.848Z" fill="black"/>
<path d="M470.137 122.598H468.59L468.121 125H467.283L467.752 122.598H466.352V121.795H467.904L468.309 119.721H466.797V118.906H468.467L468.947 116.469H469.785L469.305 118.906H470.852L471.332 116.469H472.176L471.695 118.906H472.891V119.721H471.537L471.133 121.795H472.451V122.598H470.98L470.512 125H469.668L470.137 122.598ZM468.742 121.795H470.289L470.693 119.721H469.146L468.742 121.795ZM478.744 121.232H475.164V125H474.039V116.469H479.324V117.395H475.164V120.312H478.744V121.232ZM485.377 121.232H481.797V125H480.672V116.469H485.957V117.395H481.797V120.312H485.377V121.232ZM492.531 117.078L488.998 125H487.861L491.383 117.359H486.766V116.469H492.531V117.078ZM500.318 122.293C500.213 123.195 499.879 123.893 499.316 124.385C498.758 124.873 498.014 125.117 497.084 125.117C496.076 125.117 495.268 124.756 494.658 124.033C494.053 123.311 493.75 122.344 493.75 121.133V120.312C493.75 119.52 493.891 118.822 494.172 118.221C494.457 117.619 494.859 117.158 495.379 116.838C495.898 116.514 496.5 116.352 497.184 116.352C498.09 116.352 498.816 116.605 499.363 117.113C499.91 117.617 500.229 118.316 500.318 119.211H499.188C499.09 118.531 498.877 118.039 498.549 117.734C498.225 117.43 497.77 117.277 497.184 117.277C496.465 117.277 495.9 117.543 495.49 118.074C495.084 118.605 494.881 119.361 494.881 120.342V121.168C494.881 122.094 495.074 122.83 495.461 123.377C495.848 123.924 496.389 124.197 497.084 124.197C497.709 124.197 498.188 124.057 498.52 123.775C498.855 123.49 499.078 122.996 499.188 122.293H500.318ZM506.154 122.135H507.338V123.02H506.154V125H505.064V123.02H501.18V122.381L505 116.469H506.154V122.135ZM502.41 122.135H505.064V117.951L504.936 118.186L502.41 122.135ZM512.893 122.135H514.076V123.02H512.893V125H511.803V123.02H507.918V122.381L511.738 116.469H512.893V122.135ZM509.148 122.135H511.803V117.951L511.674 118.186L509.148 122.135Z" fill="black"/>
<path d="M609.078 122.598H607.531L607.062 125H606.225L606.693 122.598H605.293V121.795H606.846L607.25 119.721H605.738V118.906H607.408L607.889 116.469H608.727L608.246 118.906H609.793L610.273 116.469H611.117L610.637 118.906H611.832V119.721H610.479L610.074 121.795H611.393V122.598H609.922L609.453 125H608.609L609.078 122.598ZM607.684 121.795H609.23L609.635 119.721H608.088L607.684 121.795ZM617.686 121.232H614.105V125H612.98V116.469H618.266V117.395H614.105V120.312H617.686V121.232ZM624.682 121.361C624.682 122.631 624.465 123.574 624.031 124.191C623.598 124.809 622.92 125.117 621.998 125.117C621.088 125.117 620.414 124.816 619.977 124.215C619.539 123.609 619.312 122.707 619.297 121.508V120.061C619.297 118.807 619.514 117.875 619.947 117.266C620.381 116.656 621.061 116.352 621.986 116.352C622.904 116.352 623.58 116.646 624.014 117.236C624.447 117.822 624.67 118.729 624.682 119.955V121.361ZM623.598 119.879C623.598 118.961 623.469 118.293 623.211 117.875C622.953 117.453 622.545 117.242 621.986 117.242C621.432 117.242 621.027 117.451 620.773 117.869C620.52 118.287 620.389 118.93 620.381 119.797V121.531C620.381 122.453 620.514 123.135 620.779 123.576C621.049 124.014 621.455 124.232 621.998 124.232C622.533 124.232 622.93 124.025 623.188 123.611C623.449 123.197 623.586 122.545 623.598 121.654V119.879ZM626.568 120.723L627.002 116.469H631.373V117.471H627.922L627.664 119.797C628.082 119.551 628.557 119.428 629.088 119.428C629.865 119.428 630.482 119.686 630.939 120.201C631.396 120.713 631.625 121.406 631.625 122.281C631.625 123.16 631.387 123.854 630.91 124.361C630.438 124.865 629.775 125.117 628.924 125.117C628.17 125.117 627.555 124.908 627.078 124.49C626.602 124.072 626.33 123.494 626.264 122.756H627.289C627.355 123.244 627.529 123.613 627.811 123.863C628.092 124.109 628.463 124.232 628.924 124.232C629.428 124.232 629.822 124.061 630.107 123.717C630.396 123.373 630.541 122.898 630.541 122.293C630.541 121.723 630.385 121.266 630.072 120.922C629.764 120.574 629.352 120.4 628.836 120.4C628.363 120.4 627.992 120.504 627.723 120.711L627.436 120.945L626.568 120.723ZM638.158 121.361C638.158 122.631 637.941 123.574 637.508 124.191C637.074 124.809 636.396 125.117 635.475 125.117C634.564 125.117 633.891 124.816 633.453 124.215C633.016 123.609 632.789 122.707 632.773 121.508V120.061C632.773 118.807 632.99 117.875 633.424 117.266C633.857 116.656 634.537 116.352 635.463 116.352C636.381 116.352 637.057 116.646 637.49 117.236C637.924 117.822 638.146 118.729 638.158 119.955V121.361ZM637.074 119.879C637.074 118.961 636.945 118.293 636.688 117.875C636.43 117.453 636.021 117.242 635.463 117.242C634.908 117.242 634.504 117.451 634.25 117.869C633.996 118.287 633.865 118.93 633.857 119.797V121.531C633.857 122.453 633.99 123.135 634.256 123.576C634.525 124.014 634.932 124.232 635.475 124.232C636.01 124.232 636.406 124.025 636.664 123.611C636.926 123.197 637.062 122.545 637.074 121.654V119.879ZM644.123 122.135H645.307V123.02H644.123V125H643.033V123.02H639.148V122.381L642.969 116.469H644.123V122.135ZM640.379 122.135H643.033V117.951L642.904 118.186L640.379 122.135ZM651.277 122.773H647.703L646.9 125H645.74L648.998 116.469H649.982L653.246 125H652.092L651.277 122.773ZM648.043 121.848H650.943L649.49 117.857L648.043 121.848Z" fill="black"/>
<path d="M751.445 122.598H749.898L749.43 125H748.592L749.061 122.598H747.66V121.795H749.213L749.617 119.721H748.105V118.906H749.775L750.256 116.469H751.094L750.613 118.906H752.16L752.641 116.469H753.484L753.004 118.906H754.199V119.721H752.846L752.441 121.795H753.76V122.598H752.289L751.82 125H750.977L751.445 122.598ZM750.051 121.795H751.598L752.002 119.721H750.455L750.051 121.795ZM761.623 122.293C761.518 123.195 761.184 123.893 760.621 124.385C760.062 124.873 759.318 125.117 758.389 125.117C757.381 125.117 756.572 124.756 755.963 124.033C755.357 123.311 755.055 122.344 755.055 121.133V120.312C755.055 119.52 755.195 118.822 755.477 118.221C755.762 117.619 756.164 117.158 756.684 116.838C757.203 116.514 757.805 116.352 758.488 116.352C759.395 116.352 760.121 116.605 760.668 117.113C761.215 117.617 761.533 118.316 761.623 119.211H760.492C760.395 118.531 760.182 118.039 759.854 117.734C759.529 117.43 759.074 117.277 758.488 117.277C757.77 117.277 757.205 117.543 756.795 118.074C756.389 118.605 756.186 119.361 756.186 120.342V121.168C756.186 122.094 756.379 122.83 756.766 123.377C757.152 123.924 757.693 124.197 758.389 124.197C759.014 124.197 759.492 124.057 759.824 123.775C760.16 123.49 760.383 122.996 760.492 122.293H761.623ZM767.137 116.463V117.383H766.938C766.094 117.398 765.422 117.648 764.922 118.133C764.422 118.617 764.133 119.299 764.055 120.178C764.504 119.662 765.117 119.404 765.895 119.404C766.637 119.404 767.229 119.666 767.67 120.189C768.115 120.713 768.338 121.389 768.338 122.217C768.338 123.096 768.098 123.799 767.617 124.326C767.141 124.854 766.5 125.117 765.695 125.117C764.879 125.117 764.217 124.805 763.709 124.18C763.201 123.551 762.947 122.742 762.947 121.754V121.338C762.947 119.768 763.281 118.568 763.949 117.74C764.621 116.908 765.619 116.482 766.943 116.463H767.137ZM765.713 120.307C765.342 120.307 765 120.418 764.688 120.641C764.375 120.863 764.158 121.143 764.037 121.479V121.877C764.037 122.58 764.195 123.146 764.512 123.576C764.828 124.006 765.223 124.221 765.695 124.221C766.184 124.221 766.566 124.041 766.844 123.682C767.125 123.322 767.266 122.852 767.266 122.27C767.266 121.684 767.123 121.211 766.838 120.852C766.557 120.488 766.182 120.307 765.713 120.307ZM773.875 116.463V117.383H773.676C772.832 117.398 772.16 117.648 771.66 118.133C771.16 118.617 770.871 119.299 770.793 120.178C771.242 119.662 771.855 119.404 772.633 119.404C773.375 119.404 773.967 119.666 774.408 120.189C774.854 120.713 775.076 121.389 775.076 122.217C775.076 123.096 774.836 123.799 774.355 124.326C773.879 124.854 773.238 125.117 772.434 125.117C771.617 125.117 770.955 124.805 770.447 124.18C769.939 123.551 769.686 122.742 769.686 121.754V121.338C769.686 119.768 770.02 118.568 770.688 117.74C771.359 116.908 772.357 116.482 773.682 116.463H773.875ZM772.451 120.307C772.08 120.307 771.738 120.418 771.426 120.641C771.113 120.863 770.896 121.143 770.775 121.479V121.877C770.775 122.58 770.934 123.146 771.25 123.576C771.566 124.006 771.961 124.221 772.434 124.221C772.922 124.221 773.305 124.041 773.582 123.682C773.863 123.322 774.004 122.852 774.004 122.27C774.004 121.684 773.861 121.211 773.576 120.852C773.295 120.488 772.92 120.307 772.451 120.307ZM781.463 121.057H777.766V124.08H782.061V125H776.641V116.469H782.002V117.395H777.766V120.137H781.463V121.057ZM783.678 120.723L784.111 116.469H788.482V117.471H785.031L784.773 119.797C785.191 119.551 785.666 119.428 786.197 119.428C786.975 119.428 787.592 119.686 788.049 120.201C788.506 120.713 788.734 121.406 788.734 122.281C788.734 123.16 788.496 123.854 788.02 124.361C787.547 124.865 786.885 125.117 786.033 125.117C785.279 125.117 784.664 124.908 784.188 124.49C783.711 124.072 783.439 123.494 783.373 122.756H784.398C784.465 123.244 784.639 123.613 784.92 123.863C785.201 124.109 785.572 124.232 786.033 124.232C786.537 124.232 786.932 124.061 787.217 123.717C787.506 123.373 787.65 122.898 787.65 122.293C787.65 121.723 787.494 121.266 787.182 120.922C786.873 120.574 786.461 120.4 785.945 120.4C785.473 120.4 785.102 120.504 784.832 120.711L784.545 120.945L783.678 120.723ZM794.91 122.773H791.336L790.533 125H789.373L792.631 116.469H793.615L796.879 125H795.725L794.91 122.773ZM791.676 121.848H794.576L793.123 117.857L791.676 121.848Z" fill="black"/>
<path d="M890.064 122.598H888.518L888.049 125H887.211L887.68 122.598H886.279V121.795H887.832L888.236 119.721H886.725V118.906H888.395L888.875 116.469H889.713L889.232 118.906H890.779L891.26 116.469H892.104L891.623 118.906H892.818V119.721H891.465L891.061 121.795H892.379V122.598H890.908L890.439 125H889.596L890.064 122.598ZM888.67 121.795H890.217L890.621 119.721H889.074L888.67 121.795ZM893.967 125V116.469H896.756C897.682 116.469 898.377 116.66 898.842 117.043C899.311 117.426 899.545 117.992 899.545 118.742C899.545 119.141 899.432 119.494 899.205 119.803C898.979 120.107 898.67 120.344 898.279 120.512C898.74 120.641 899.104 120.887 899.369 121.25C899.639 121.609 899.773 122.039 899.773 122.539C899.773 123.305 899.525 123.906 899.029 124.344C898.533 124.781 897.832 125 896.926 125H893.967ZM895.092 121.01V124.08H896.949C897.473 124.08 897.885 123.945 898.186 123.676C898.49 123.402 898.643 123.027 898.643 122.551C898.643 121.523 898.084 121.01 896.967 121.01H895.092ZM895.092 120.107H896.791C897.283 120.107 897.676 119.984 897.969 119.738C898.266 119.492 898.414 119.158 898.414 118.736C898.414 118.268 898.277 117.928 898.004 117.717C897.73 117.502 897.314 117.395 896.756 117.395H895.092V120.107ZM901.443 125V116.469H903.852C904.594 116.469 905.25 116.633 905.82 116.961C906.391 117.289 906.83 117.756 907.139 118.361C907.451 118.967 907.609 119.662 907.613 120.447V120.992C907.613 121.797 907.457 122.502 907.145 123.107C906.836 123.713 906.393 124.178 905.814 124.502C905.24 124.826 904.57 124.992 903.805 125H901.443ZM902.568 117.395V124.08H903.752C904.619 124.08 905.293 123.811 905.773 123.271C906.258 122.732 906.5 121.965 906.5 120.969V120.471C906.5 119.502 906.271 118.75 905.814 118.215C905.361 117.676 904.717 117.402 903.881 117.395H902.568ZM914.211 118.695C914.211 119.121 914.098 119.5 913.871 119.832C913.648 120.164 913.346 120.424 912.963 120.611C913.408 120.803 913.76 121.082 914.018 121.449C914.279 121.816 914.41 122.232 914.41 122.697C914.41 123.436 914.16 124.023 913.66 124.461C913.164 124.898 912.51 125.117 911.697 125.117C910.877 125.117 910.219 124.898 909.723 124.461C909.23 124.02 908.984 123.432 908.984 122.697C908.984 122.236 909.109 121.82 909.359 121.449C909.613 121.078 909.963 120.797 910.408 120.605C910.029 120.418 909.73 120.158 909.512 119.826C909.293 119.494 909.184 119.117 909.184 118.695C909.184 117.977 909.414 117.406 909.875 116.984C910.336 116.562 910.943 116.352 911.697 116.352C912.447 116.352 913.053 116.562 913.514 116.984C913.979 117.406 914.211 117.977 914.211 118.695ZM913.326 122.674C913.326 122.197 913.174 121.809 912.869 121.508C912.568 121.207 912.174 121.057 911.686 121.057C911.197 121.057 910.805 121.205 910.508 121.502C910.215 121.799 910.068 122.189 910.068 122.674C910.068 123.158 910.211 123.539 910.496 123.816C910.785 124.094 911.186 124.232 911.697 124.232C912.205 124.232 912.604 124.094 912.893 123.816C913.182 123.535 913.326 123.154 913.326 122.674ZM911.697 117.242C911.271 117.242 910.926 117.375 910.66 117.641C910.398 117.902 910.268 118.26 910.268 118.713C910.268 119.146 910.396 119.498 910.654 119.768C910.916 120.033 911.264 120.166 911.697 120.166C912.131 120.166 912.477 120.033 912.734 119.768C912.996 119.498 913.127 119.146 913.127 118.713C913.127 118.279 912.992 117.926 912.723 117.652C912.453 117.379 912.111 117.242 911.697 117.242ZM916.057 125V116.469H918.465C919.207 116.469 919.863 116.633 920.434 116.961C921.004 117.289 921.443 117.756 921.752 118.361C922.064 118.967 922.223 119.662 922.227 120.447V120.992C922.227 121.797 922.07 122.502 921.758 123.107C921.449 123.713 921.006 124.178 920.428 124.502C919.854 124.826 919.184 124.992 918.418 125H916.057ZM917.182 117.395V124.08H918.365C919.232 124.08 919.906 123.811 920.387 123.271C920.871 122.732 921.113 121.965 921.113 120.969V120.471C921.113 119.502 920.885 118.75 920.428 118.215C919.975 117.676 919.33 117.402 918.494 117.395H917.182ZM924.148 120.723L924.582 116.469H928.953V117.471H925.502L925.244 119.797C925.662 119.551 926.137 119.428 926.668 119.428C927.445 119.428 928.062 119.686 928.52 120.201C928.977 120.713 929.205 121.406 929.205 122.281C929.205 123.16 928.967 123.854 928.49 124.361C928.018 124.865 927.355 125.117 926.504 125.117C925.75 125.117 925.135 124.908 924.658 124.49C924.182 124.072 923.91 123.494 923.844 122.756H924.869C924.936 123.244 925.109 123.613 925.391 123.863C925.672 124.109 926.043 124.232 926.504 124.232C927.008 124.232 927.402 124.061 927.688 123.717C927.977 123.373 928.121 122.898 928.121 122.293C928.121 121.723 927.965 121.266 927.652 120.922C927.344 120.574 926.932 120.4 926.416 120.4C925.943 120.4 925.572 120.504 925.303 120.711L925.016 120.945L924.148 120.723ZM934.643 116.463V117.383H934.443C933.6 117.398 932.928 117.648 932.428 118.133C931.928 118.617 931.639 119.299 931.561 120.178C932.01 119.662 932.623 119.404 933.4 119.404C934.143 119.404 934.734 119.666 935.176 120.189C935.621 120.713 935.844 121.389 935.844 122.217C935.844 123.096 935.604 123.799 935.123 124.326C934.646 124.854 934.006 125.117 933.201 125.117C932.385 125.117 931.723 124.805 931.215 124.18C930.707 123.551 930.453 122.742 930.453 121.754V121.338C930.453 119.768 930.787 118.568 931.455 117.74C932.127 116.908 933.125 116.482 934.449 116.463H934.643ZM933.219 120.307C932.848 120.307 932.506 120.418 932.193 120.641C931.881 120.863 931.664 121.143 931.543 121.479V121.877C931.543 122.58 931.701 123.146 932.018 123.576C932.334 124.006 932.729 124.221 933.201 124.221C933.689 124.221 934.072 124.041 934.35 123.682C934.631 123.322 934.771 122.852 934.771 122.27C934.771 121.684 934.629 121.211 934.344 120.852C934.062 120.488 933.688 120.307 933.219 120.307Z" fill="black"/>
<path d="M1030.57 122.598H1029.02L1028.55 125H1027.72L1028.19 122.598H1026.79V121.795H1028.34L1028.74 119.721H1027.23V118.906H1028.9L1029.38 116.469H1030.22L1029.74 118.906H1031.29L1031.77 116.469H1032.61L1032.13 118.906H1033.32V119.721H1031.97L1031.57 121.795H1032.88V122.598H1031.41L1030.95 125H1030.1L1030.57 122.598ZM1029.18 121.795H1030.72L1031.13 119.721H1029.58L1029.18 121.795ZM1034.69 120.723L1035.12 116.469H1039.49V117.471H1036.04L1035.79 119.797C1036.2 119.551 1036.68 119.428 1037.21 119.428C1037.99 119.428 1038.6 119.686 1039.06 120.201C1039.52 120.713 1039.75 121.406 1039.75 122.281C1039.75 123.16 1039.51 123.854 1039.03 124.361C1038.56 124.865 1037.9 125.117 1037.04 125.117C1036.29 125.117 1035.68 124.908 1035.2 124.49C1034.72 124.072 1034.45 123.494 1034.38 122.756H1035.41C1035.48 123.244 1035.65 123.613 1035.93 123.863C1036.21 124.109 1036.58 124.232 1037.04 124.232C1037.55 124.232 1037.94 124.061 1038.23 123.717C1038.52 123.373 1038.66 122.898 1038.66 122.293C1038.66 121.723 1038.51 121.266 1038.19 120.922C1037.88 120.574 1037.47 120.4 1036.96 120.4C1036.48 120.4 1036.11 120.504 1035.84 120.711L1035.56 120.945L1034.69 120.723ZM1046.1 118.695C1046.1 119.121 1045.99 119.5 1045.76 119.832C1045.54 120.164 1045.24 120.424 1044.86 120.611C1045.3 120.803 1045.65 121.082 1045.91 121.449C1046.17 121.816 1046.3 122.232 1046.3 122.697C1046.3 123.436 1046.05 124.023 1045.55 124.461C1045.06 124.898 1044.4 125.117 1043.59 125.117C1042.77 125.117 1042.11 124.898 1041.62 124.461C1041.12 124.02 1040.88 123.432 1040.88 122.697C1040.88 122.236 1041 121.82 1041.25 121.449C1041.51 121.078 1041.86 120.797 1042.3 120.605C1041.92 120.418 1041.62 120.158 1041.4 119.826C1041.19 119.494 1041.08 119.117 1041.08 118.695C1041.08 117.977 1041.31 117.406 1041.77 116.984C1042.23 116.562 1042.84 116.352 1043.59 116.352C1044.34 116.352 1044.95 116.562 1045.41 116.984C1045.87 117.406 1046.1 117.977 1046.1 118.695ZM1045.22 122.674C1045.22 122.197 1045.07 121.809 1044.76 121.508C1044.46 121.207 1044.07 121.057 1043.58 121.057C1043.09 121.057 1042.7 121.205 1042.4 121.502C1042.11 121.799 1041.96 122.189 1041.96 122.674C1041.96 123.158 1042.1 123.539 1042.39 123.816C1042.68 124.094 1043.08 124.232 1043.59 124.232C1044.1 124.232 1044.5 124.094 1044.79 123.816C1045.07 123.535 1045.22 123.154 1045.22 122.674ZM1043.59 117.242C1043.16 117.242 1042.82 117.375 1042.55 117.641C1042.29 117.902 1042.16 118.26 1042.16 118.713C1042.16 119.146 1042.29 119.498 1042.55 119.768C1042.81 120.033 1043.16 120.166 1043.59 120.166C1044.02 120.166 1044.37 120.033 1044.63 119.768C1044.89 119.498 1045.02 119.146 1045.02 118.713C1045.02 118.279 1044.88 117.926 1044.62 117.652C1044.35 117.379 1044 117.242 1043.59 117.242ZM1052.24 122.135H1053.43V123.02H1052.24V125H1051.15V123.02H1047.27V122.381L1051.09 116.469H1052.24V122.135ZM1048.5 122.135H1051.15V117.951L1051.03 118.186L1048.5 122.135ZM1058.56 121.25C1058.33 121.52 1058.06 121.736 1057.75 121.9C1057.43 122.064 1057.09 122.146 1056.71 122.146C1056.22 122.146 1055.79 122.025 1055.43 121.783C1055.06 121.541 1054.78 121.201 1054.58 120.764C1054.38 120.322 1054.28 119.836 1054.28 119.305C1054.28 118.734 1054.39 118.221 1054.61 117.764C1054.82 117.307 1055.13 116.957 1055.53 116.715C1055.93 116.473 1056.39 116.352 1056.93 116.352C1057.77 116.352 1058.43 116.668 1058.92 117.301C1059.41 117.93 1059.65 118.789 1059.65 119.879V120.195C1059.65 121.855 1059.32 123.068 1058.67 123.834C1058.01 124.596 1057.02 124.986 1055.7 125.006H1055.48V124.092H1055.71C1056.61 124.076 1057.29 123.844 1057.78 123.395C1058.26 122.941 1058.52 122.227 1058.56 121.25ZM1056.89 121.25C1057.25 121.25 1057.59 121.139 1057.89 120.916C1058.2 120.693 1058.43 120.418 1058.57 120.09V119.656C1058.57 118.945 1058.41 118.367 1058.1 117.922C1057.79 117.477 1057.4 117.254 1056.93 117.254C1056.46 117.254 1056.07 117.438 1055.78 117.805C1055.49 118.168 1055.35 118.648 1055.35 119.246C1055.35 119.828 1055.49 120.309 1055.77 120.688C1056.05 121.062 1056.42 121.25 1056.89 121.25ZM1065.72 122.135H1066.9V123.02H1065.72V125H1064.63V123.02H1060.75V122.381L1064.57 116.469H1065.72V122.135ZM1061.98 122.135H1064.63V117.951L1064.5 118.186L1061.98 122.135ZM1072.46 122.135H1073.64V123.02H1072.46V125H1071.37V123.02H1067.48V122.381L1071.3 116.469H1072.46V122.135ZM1068.71 122.135H1071.37V117.951L1071.24 118.186L1068.71 122.135Z" fill="black"/>
<path d="M1172.35 122.598H1170.8L1170.33 125H1169.49L1169.96 122.598H1168.56V121.795H1170.11L1170.52 119.721H1169.01V118.906H1170.68L1171.16 116.469H1171.99L1171.51 118.906H1173.06L1173.54 116.469H1174.38L1173.9 118.906H1175.1V119.721H1173.75L1173.34 121.795H1174.66V122.598H1173.19L1172.72 125H1171.88L1172.35 122.598ZM1170.95 121.795H1172.5L1172.9 119.721H1171.36L1170.95 121.795ZM1176.25 125V116.469H1179.04C1179.96 116.469 1180.66 116.66 1181.12 117.043C1181.59 117.426 1181.83 117.992 1181.83 118.742C1181.83 119.141 1181.71 119.494 1181.49 119.803C1181.26 120.107 1180.95 120.344 1180.56 120.512C1181.02 120.641 1181.38 120.887 1181.65 121.25C1181.92 121.609 1182.05 122.039 1182.05 122.539C1182.05 123.305 1181.81 123.906 1181.31 124.344C1180.81 124.781 1180.11 125 1179.21 125H1176.25ZM1177.37 121.01V124.08H1179.23C1179.75 124.08 1180.17 123.945 1180.47 123.676C1180.77 123.402 1180.92 123.027 1180.92 122.551C1180.92 121.523 1180.37 121.01 1179.25 121.01H1177.37ZM1177.37 120.107H1179.07C1179.56 120.107 1179.96 119.984 1180.25 119.738C1180.55 119.492 1180.7 119.158 1180.7 118.736C1180.7 118.268 1180.56 117.928 1180.29 117.717C1180.01 117.502 1179.6 117.395 1179.04 117.395H1177.37V120.107ZM1188.43 121.232H1184.85V125H1183.72V116.469H1189.01V117.395H1184.85V120.312H1188.43V121.232ZM1196.63 122.293C1196.53 123.195 1196.19 123.893 1195.63 124.385C1195.07 124.873 1194.33 125.117 1193.4 125.117C1192.39 125.117 1191.58 124.756 1190.97 124.033C1190.37 123.311 1190.06 122.344 1190.06 121.133V120.312C1190.06 119.52 1190.21 118.822 1190.49 118.221C1190.77 117.619 1191.17 117.158 1191.69 116.838C1192.21 116.514 1192.81 116.352 1193.5 116.352C1194.4 116.352 1195.13 116.605 1195.68 117.113C1196.22 117.617 1196.54 118.316 1196.63 119.211H1195.5C1195.4 118.531 1195.19 118.039 1194.86 117.734C1194.54 117.43 1194.08 117.277 1193.5 117.277C1192.78 117.277 1192.21 117.543 1191.8 118.074C1191.4 118.605 1191.2 119.361 1191.2 120.342V121.168C1191.2 122.094 1191.39 122.83 1191.78 123.377C1192.16 123.924 1192.7 124.197 1193.4 124.197C1194.02 124.197 1194.5 124.057 1194.83 123.775C1195.17 123.49 1195.39 122.996 1195.5 122.293H1196.63ZM1198.39 120.723L1198.82 116.469H1203.2V117.471H1199.74L1199.49 119.797C1199.9 119.551 1200.38 119.428 1200.91 119.428C1201.69 119.428 1202.3 119.686 1202.76 120.201C1203.22 120.713 1203.45 121.406 1203.45 122.281C1203.45 123.16 1203.21 123.854 1202.73 124.361C1202.26 124.865 1201.6 125.117 1200.75 125.117C1199.99 125.117 1199.38 124.908 1198.9 124.49C1198.42 124.072 1198.15 123.494 1198.09 122.756H1199.11C1199.18 123.244 1199.35 123.613 1199.63 123.863C1199.91 124.109 1200.29 124.232 1200.75 124.232C1201.25 124.232 1201.64 124.061 1201.93 123.717C1202.22 123.373 1202.36 122.898 1202.36 122.293C1202.36 121.723 1202.21 121.266 1201.89 120.922C1201.59 120.574 1201.17 120.4 1200.66 120.4C1200.19 120.4 1199.81 120.504 1199.54 120.711L1199.26 120.945L1198.39 120.723ZM1210.14 117.078L1206.61 125H1205.47L1208.99 117.359H1204.37V116.469H1210.14V117.078ZM1211.65 125V116.469H1214.44C1215.37 116.469 1216.06 116.66 1216.53 117.043C1216.99 117.426 1217.23 117.992 1217.23 118.742C1217.23 119.141 1217.12 119.494 1216.89 119.803C1216.66 120.107 1216.35 120.344 1215.96 120.512C1216.42 120.641 1216.79 120.887 1217.05 121.25C1217.32 121.609 1217.46 122.039 1217.46 122.539C1217.46 123.305 1217.21 123.906 1216.71 124.344C1216.22 124.781 1215.52 125 1214.61 125H1211.65ZM1212.78 121.01V124.08H1214.63C1215.16 124.08 1215.57 123.945 1215.87 123.676C1216.17 123.402 1216.33 123.027 1216.33 122.551C1216.33 121.523 1215.77 121.01 1214.65 121.01H1212.78ZM1212.78 120.107H1214.47C1214.97 120.107 1215.36 119.984 1215.65 119.738C1215.95 119.492 1216.1 119.158 1216.1 118.736C1216.1 118.268 1215.96 117.928 1215.69 117.717C1215.41 117.502 1215 117.395 1214.44 117.395H1212.78V120.107Z" fill="black"/>
</svg>
